# xmcd
#
# Track frame offsets: 
#        183
#        17238
#        40388
#        53883
#        66985
#        85253
#        96458
#        112233
#        130513
#        155303
#        174305
#        195938
#
# Disc length: 2882 seconds
#
# Revision: 3
# Processed by: cddbd v1.5.2PL0 Copyright (c) Steve Scherf et al.
# Submitted via: ExactAudioCopy v0.99pb5
#
DISCID=9e0b400c
DTITLE=Takáts Tamás Dirty Blues Band - 2.
DYEAR=1993
DGENRE=Blues
TTITLE0=Világvége Blues
TTITLE1=Hirdetõ  Blues
TTITLE2=UFO-t lát a jeti
TTITLE3=Chicago - New York - Budapest Blues
TTITLE4=Meguntalak
TTITLE5=Jaj de jó
TTITLE6=A babám mindig hazavár
TTITLE7=Zakatol a vonat
TTITLE8=Pocsolyába léptem
TTITLE9=Vigyázz!
TTITLE10=Roadhouse Blues (Doors)
TTITLE11=Trouble in mind
EXTD=
EXTT0=
EXTT1=
EXTT2=
EXTT3=
EXTT4=
EXTT5=
EXTT6=
EXTT7=
EXTT8=
EXTT9=
EXTT10=
EXTT11=
PLAYORDER=
